<svg width="16" height="16" viewBox="0 0 16 16" fill="none" xmlns="http://www.w3.org/2000/svg">
<g opacity="0.3">
<path fill-rule="evenodd" clip-rule="evenodd" d="M3 6.21899C3 6.21899 3 4.79023 3 4.36161C3 3.56007 3.18614 3.05572 4.30594 3.05572C5.42575 3.05572 12.0701 3 12.8579 3C13.8258 3 13.9851 3.64723 13.9851 4.36303C13.9851 4.73737 14 6.12612 14 6.12612L3 6.21899ZM5.78313 7.52202C6.91336 7.52202 6.94165 9.23652 5.86057 9.23652C4.57845 9.23081 4.67226 7.52202 5.78313 7.52202ZM5.86057 11.7826C4.57845 11.7826 4.66928 10.0681 5.78313 10.0681C6.89698 10.0681 6.94165 11.7826 5.86057 11.7826ZM8.54095 7.52202C9.67118 7.52202 9.69947 9.23652 8.61838 9.23652C7.34222 9.23081 7.43604 7.52202 8.54691 7.52202H8.54095ZM8.61838 11.7826C7.33627 11.7826 7.4271 10.0681 8.54095 10.0681C9.6548 10.0681 9.70543 11.7826 8.62434 11.7826H8.61838ZM11.2988 7.52202C12.4305 7.52202 12.4588 9.23652 11.3777 9.23652C10.1075 9.23081 10.2013 7.52202 11.3107 7.52202H11.2988ZM4.02599 7.03338L4.09002 12.7684C4.09002 12.7684 8.16718 12.6455 9.2855 12.6455C11.4536 12.6455 10.7552 10.4953 10.7552 10.4953L13.0902 10.431L13.1095 7.03338H13.8943L13.9687 13.9L3.12657 14L3.15933 7.03338H4.02599Z" fill="#141F25"/>
</g>
</svg>
