<svg width="16" height="16" viewBox="0 0 16 16" fill="none" xmlns="http://www.w3.org/2000/svg">
<g opacity="0.3">
<path fill-rule="evenodd" clip-rule="evenodd" d="M8.20433 13.6434C0.000330448 13.6434 0.37233 2.07495 8.071 2.07495C15.7457 2.07495 15.6977 13.6434 8.20433 13.6434ZM8.063 2.89995C1.459 2.89995 1.14166 12.8197 8.175 12.8197C14.6003 12.8157 14.6417 2.89995 8.063 2.89995ZM12.2883 8.446L10.859 8.70916L10.7257 7.696H12.287L12.2883 8.446ZM7.559 9.06179L5.67233 7.07627L6.07233 6.59732L7.98833 7.62758L11.3043 5.05258L11.587 5.42364L8.43766 8.96179L7.559 9.06179ZM8.02433 3.87758L8.88966 3.80916L8.95366 5.38811L8.06966 5.346L8.02433 3.87758ZM6.98966 3.87758H7.53633L7.66966 5.39469L6.859 5.26311L6.98966 3.87758ZM3.73366 7.95521L5.27233 7.69206L5.40566 8.72232H3.867L3.73366 7.95521ZM8.64566 11.971L7.86966 12.1842L7.603 10.6842L8.64433 10.6013L8.64566 11.971Z" fill="#141F25"/>
</g>
</svg>
