<svg width="32" height="32" viewBox="0 0 32 32" fill="none" xmlns="http://www.w3.org/2000/svg">
<path fill-rule="evenodd" clip-rule="evenodd" d="M28.1864 24.666L19.9692 28L12.7528 22.6651L2 25.0014L3.81658 5.66554L12.8525 4L21.0844 9.33205L30 6.33349L28.1864 24.666ZM26.6632 11.9605L26.1174 14.534L24.5209 14.7653L23.3265 17.0872L22.2847 15.6414L21.4336 15.5894L21.0902 15.3581L21.011 16.4511L20.0543 16.8646L19.1064 15.5345L18.6016 15.8236L19.526 17.4458L20.6647 17.7812L19.4585 19.0998L19.1064 21.2135L16.7762 21.7629L15.7403 20.3171L15.4468 17.7147L13.6332 16.7981L12.7704 15.0111L12.9611 13.8805L14.7219 12.9523L16.6207 14.1957L18.675 13.9788L18.6515 12.8453L17.3456 12.1716L17.1695 13.1634L16.1541 13.039L15.8606 11.8564L14.6867 12.0559L13.9442 10.321L14.6075 9.59229L15.3236 10.2602L16.2362 10.3065L17.5158 8.83181L12.383 5.55855L10.7161 5.8853L10.945 6.23518L11.1798 7.76193L10.8511 7.94988L8.68232 6.28144L7.91049 6.43181L7.66104 8.3894L8.82025 9.25687L9.06383 7.67518L10.7131 9.12096L10.5077 10.2342L9.14307 11.1566L9.10491 12.9639L8.0807 12.3364L6.63683 12.1716L6.72781 13.0737L7.95451 13.493L6.80998 14.2882L5.3661 13.4496L4.75275 11.8014L3.75495 23.174L6.37564 22.532L7.59941 18.212L6.90682 17.4458L6.57814 15.9133L7.82539 14.161L11.0976 15.9624L10.9538 16.5841L12.5972 17.8304L11.4409 19.4294L11.0066 19.9788H10.1086L8.1394 22.1099L12.8555 20.9533L20.0778 26.2014L26.8804 23.4284L28.0161 11.2839L26.6632 11.9605ZM24.6706 22.3701L23.8635 21.8178L22.1526 23.1393L21.6977 21.3147L23.3764 18.7817L23.6141 19.3918L24.2949 19.2935L24.5385 18.2381L25.8533 19.5855L25.7828 21.494L24.6706 22.3701Z" fill="#A4ABAF"/>
</svg>
